# xmcd
#
# Track frame offsets: 
#        150
#        16525
#        34300
#        47775
#        61625
#        77570
#        91040
#        106385
#        120400
#        133605
#
# Disc length: 1990 seconds
#
# Revision: 5
# Processed by: cddbd v1.5PL3 Copyright (c) Steve Scherf et al.
# Submitted via: ExactAudioCopy v0.95a3
#
DISCID=6b07c40a
DTITLE=Tracy Lawrence - The Coast Is Clear
DYEAR=1997
DGENRE=Country
TTITLE0=Better Man, Better Off
TTITLE1=The Coast Is Clear
TTITLE2=Any Minute Now
TTITLE3=While You Sleep
TTITLE4=How A Cowgirl Says Goodbye
TTITLE5=One Step Ahead Of The Storm
TTITLE6=In A Moment Of Weakness
TTITLE7=Livin' In Black And White
TTITLE8=I Hit The Ground Crawlin'
TTITLE9=As Lonesome As It Gets
EXTD=
EXTT0=
EXTT1=
EXTT2=
EXTT3=
EXTT4=
EXTT5=
EXTT6=
EXTT7=
EXTT8=
EXTT9=
PLAYORDER=
